<?xml version="1.0" encoding="utf-8"?>
<!-- Generator: Adobe Illustrator 18.1.1, SVG Export Plug-In . SVG Version: 6.00 Build 0)  -->
<svg version="1.1" id="Layer_1" xmlns="http://www.w3.org/2000/svg" xmlns:xlink="http://www.w3.org/1999/xlink" x="0px" y="0px"
	 viewBox="0 0 48 48" enable-background="new 0 0 48 48" xml:space="preserve">
<g>
	<path fill="#84979D" d="M44,46.9L1.1,4c-0.8-0.8-0.8-2.1,0-2.8l0,0c0.8-0.8,2.1-0.8,2.8,0L46.9,44c0.8,0.8,0.8,2.1,0,2.8l0,0
		C46.1,47.7,44.8,47.7,44,46.9z"/>
	<path fill="#84979D" d="M46.9,4L4,46.9c-0.8,0.8-2.1,0.8-2.8,0l0,0c-0.8-0.8-0.8-2.1,0-2.8L44,1.1c0.8-0.8,2.1-0.8,2.8,0l0,0
		C47.7,1.9,47.7,3.2,46.9,4z"/>
</g>
</svg>
