<?xml version="1.0" encoding="utf-8"?>
<!-- Generator: Adobe Illustrator 18.1.1, SVG Export Plug-In . SVG Version: 6.00 Build 0)  -->
<svg version="1.1" id="Layer_1" xmlns="http://www.w3.org/2000/svg" xmlns:xlink="http://www.w3.org/1999/xlink" x="0px" y="0px"
	 viewBox="0 0 48 48" enable-background="new 0 0 48 48" xml:space="preserve">
<g>
	<g>
		<path fill="#495559" d="M24,47.6l-0.6-0.7c-0.1-0.1-9.5-11.3-14.5-22.8c-1.1-2.2-1.6-4.6-1.6-7.1C7.3,7.8,14.8,0.4,24,0.4
			c9.2,0,16.7,7.5,16.7,16.6c0,2.5-0.5,4.9-1.6,7.1c-5,11.5-14.4,22.7-14.5,22.8L24,47.6z M24,2C15.7,2,8.9,8.7,8.9,17
			c0,2.3,0.5,4.4,1.5,6.4c4.2,9.6,11.5,19,13.7,21.7c2.1-2.7,9.5-12.1,13.6-21.7c1-2.1,1.5-4.2,1.5-6.5C39.1,8.7,32.3,2,24,2z"/>
		<path fill="#495559" d="M24,25.6c-4.8,0-8.8-3.9-8.8-8.8C15.2,12,19.2,8,24,8c4.8,0,8.8,3.9,8.8,8.8C32.8,21.6,28.8,25.6,24,25.6z
			 M24,9.6c-4,0-7.2,3.2-7.2,7.2c0,4,3.2,7.2,7.2,7.2c4,0,7.2-3.2,7.2-7.2C31.2,12.9,28,9.6,24,9.6z"/>
	</g>
</g>
</svg>
